<?xml version="1.0" standalone="no"?>
<!DOCTYPE svg PUBLIC "-//W3C//DTD SVG 20010904//EN"
 "http://www.w3.org/TR/2001/REC-SVG-20010904/DTD/svg10.dtd">
<svg version="1.0" xmlns="http://www.w3.org/2000/svg"
 width="1120.000000pt" height="1120.000000pt" viewBox="0 0 1120.000000 1120.000000"
 preserveAspectRatio="xMidYMid meet">
<metadata>
Created by potrace 1.11, written by Peter Selinger 2001-2013
</metadata>
<g transform="translate(0.000000,1120.000000) scale(0.100000,-0.100000)"
fill="#000000" stroke="none">
<path d="M1955 9899 c-394 -50 -784 -215 -1103 -467 -442 -349 -743 -890 -812
-1462 -14 -117 -14 -4583 0 -4700 50 -407 211 -793 470 -1120 347 -440 889
-741 1460 -810 117 -14 7143 -14 7260 0 407 50 793 211 1120 470 440 347 741
889 810 1460 6 55 10 864 10 2355 0 1896 -3 2287 -14 2375 -65 483 -284 927
-627 1269 -348 348 -807 571 -1299 631 -106 13 -7172 12 -7275 -1z"/>
</g>
</svg>
